<?xml version="1.0" encoding="UTF-8" standalone="no"?>
<!-- Created with Inkscape (http://www.inkscape.org/) -->

<svg
   width="599.99988"
   height="150"
   viewBox="0 0 158.74996 39.6875"
   version="1.1"
   id="svg5"
   inkscape:version="1.2.2 (732a01da63, 2022-12-09, custom)"
   sodipodi:docname="logo_with_text.svg"
   xml:space="preserve"
   xmlns:inkscape="http://www.inkscape.org/namespaces/inkscape"
   xmlns:sodipodi="http://sodipodi.sourceforge.net/DTD/sodipodi-0.dtd"
   xmlns="http://www.w3.org/2000/svg"
   xmlns:svg="http://www.w3.org/2000/svg"><sodipodi:namedview
     id="namedview7"
     pagecolor="#ffffff"
     bordercolor="#000000"
     borderopacity="0.25"
     inkscape:showpageshadow="2"
     inkscape:pageopacity="0.0"
     inkscape:pagecheckerboard="0"
     inkscape:deskcolor="#d1d1d1"
     inkscape:document-units="px"
     showgrid="false"
     inkscape:zoom="1.305541"
     inkscape:cx="215.23644"
     inkscape:cy="91.532932"
     inkscape:window-width="1366"
     inkscape:window-height="704"
     inkscape:window-x="0"
     inkscape:window-y="27"
     inkscape:window-maximized="1"
     inkscape:current-layer="layer1"
     showguides="true" /><defs
     id="defs2" /><g
     inkscape:label="Layer 1"
     inkscape:groupmode="layer"
     id="layer1"
     transform="translate(-124.53263,-112.87753)"><text
       xml:space="preserve"
       style="font-size:21.7485px;font-family:'Roboto Condensed';-inkscape-font-specification:'Roboto Condensed, ';text-align:center;text-anchor:middle;fill:#000000;stroke:none;stroke-width:1.32292;stroke-linecap:square;stroke-dasharray:none"
       x="217.39803"
       y="138.55664"
       id="text1179"><tspan
         sodipodi:role="line"
         id="tspan1177"
         style="font-size:21.7485px;stroke-width:1.32292"
         x="217.39803"
         y="138.55664">vapCycleCalc</tspan></text><g
       id="g14445"
       transform="matrix(0.2883926,0,0,0.2883926,125.12165,64.767283)"
       style="stroke-width:3.46749"><circle
         style="fill:#4fc3f7;fill-opacity:1;stroke:none;stroke-width:6.88082;stroke-linecap:square;stroke-dasharray:none"
         id="circle14413"
         cx="57.580925"
         cy="235.68097"
         r="32.874477" /><path
         id="path14415"
         style="color:#000000;fill:#000000;stroke-width:3.46749;stroke-linecap:square;-inkscape-stroke:none"
         d="m 59.337187,201.86018 0.64441,0.94723 -0.70539,1.03715 c 15.77098,0.82467 28.49238,13.08611 30.03124,28.65613 l 1.14877,0.78135 0.8599,-0.58498 c -1.46239,-16.72058 -15.09454,-29.97277 -31.97893,-30.83688 z m -4.74079,0.0873 c -16.720613,1.46289 -29.973364,15.0941 -30.836884,31.97842 l 0.94671,-0.64389 1.037661,0.7059 c 0.8235,-15.77109 13.08523,-28.49134 28.655103,-30.03125 l 0.78187,-1.14928 z m 34.82164,35.42729 c -0.82448,15.77044 -13.08565,28.49142 -28.6551,30.03125 l -0.78134,1.14928 0.58446,0.85938 c 16.71976,-1.46316 29.97184,-15.09451 30.83636,-31.97789 l -0.9462,0.64388 z m -64.711814,0.7059 -0.85938,0.58446 c 1.46315,16.71962 15.094251,29.97161 31.977384,30.83636 l -0.64337,-0.94619 0.7059,-1.03818 C 40.116474,266.69268 27.395554,254.43177 25.855504,238.86257 Z" /><text
         xml:space="preserve"
         style="font-size:51.6702px;font-family:'Roboto Condensed';-inkscape-font-specification:'Roboto Condensed, ';text-align:center;text-anchor:middle;fill:#000000;stroke:none;stroke-width:4.58722;stroke-linecap:square;stroke-dasharray:none"
         x="58.175087"
         y="241.59721"
         id="text14419"><tspan
           sodipodi:role="line"
           id="tspan14417"
           style="fill:#000000;stroke:none;stroke-width:4.58722"
           x="58.175087"
           y="241.59721">ğœ‚</tspan></text><path
         style="color:#000000;fill:#000000;stroke-width:3.46749;stroke-linecap:square;-inkscape-stroke:none"
         d="m 52.220703,193.16016 -1.640625,1.11523 0.558594,0.82031 5.242187,7.71094 -5.242187,7.71094 -0.558594,0.82031 1.640625,1.11523 0.558594,-0.82031 6.001953,-8.82617 -6.001953,-8.82617 z"
         id="path14421" /><path
         style="color:#000000;fill:#000000;stroke-width:3.46749;stroke-linecap:square;-inkscape-stroke:none"
         d="m 62.941406,258.9082 -0.558594,0.82032 -6.001953,8.82617 6.001953,8.82617 0.558594,0.82031 1.640625,-1.11523 -0.558594,-0.82032 -5.242187,-7.71093 5.242187,-7.70899 0.558594,-0.82031 z"
         id="path14423" /><path
         style="color:#000000;fill:#000000;stroke-width:3.46749;stroke-linecap:square;-inkscape-stroke:none"
         d="m 24.707031,234.48047 -8.826172,6.00195 -0.820312,0.5586 1.115234,1.64062 0.820313,-0.55859 7.710937,-5.24219 7.708985,5.24219 0.820312,0.55859 1.117188,-1.64062 -0.820313,-0.5586 z"
         id="path14425" /><path
         style="color:#000000;fill:#000000;stroke-width:3.46749;stroke-linecap:square;-inkscape-stroke:none"
         d="m 81.923828,228.67969 -1.115234,1.64062 0.820312,0.5586 8.826172,6.00195 8.826172,-6.00195 0.82031,-0.5586 -1.115232,-1.64062 -0.820312,0.55859 -7.710938,5.24219 -7.710937,-5.24219 z"
         id="path14427" /><g
         aria-label="1"
         id="g14431"
         style="font-size:11.2889px;font-family:Oswald;-inkscape-font-specification:Oswald;text-align:center;text-anchor:middle;stroke-width:13.7616;stroke-linecap:square"><path
           d="m 13.501972,234.48112 v -7.4168 q -0.06773,0.0339 -0.270933,0.1016 -0.191912,0.0677 -0.428979,0.13546 -0.237067,0.0565 -0.440267,0.11289 -0.191911,0.0565 -0.270933,0.0903 v -1.16275 q 0.158044,-0.0564 0.395111,-0.15805 0.237067,-0.1016 0.496712,-0.22577 0.270933,-0.13547 0.496711,-0.29352 0.237067,-0.15804 0.383823,-0.32737 h 1.196623 v 9.144 z"
           id="path14429"
           style="stroke-width:13.7616" /></g><g
         aria-label="2"
         id="g14435"
         style="font-size:11.2889px;font-family:Oswald;-inkscape-font-specification:Oswald;text-align:center;text-anchor:middle;stroke-width:13.7616;stroke-linecap:square"><path
           d="m 58.780785,193.1599 v -1.10632 l 2.25778,-3.48827 q 0.248356,-0.38382 0.462845,-0.73377 0.225778,-0.34996 0.361244,-0.72249 0.146756,-0.38383 0.146756,-0.83538 0,-0.508 -0.180622,-0.77894 -0.180623,-0.27093 -0.564445,-0.27093 -0.361245,0 -0.564445,0.2032 -0.203201,0.2032 -0.282223,0.53058 -0.06773,0.32738 -0.06773,0.72249 v 0.38382 h -1.535291 v -0.4064 q 0,-0.8128 0.237067,-1.4224 0.248356,-0.62089 0.778934,-0.97085 0.530579,-0.34995 1.388535,-0.34995 1.174046,0 1.761069,0.63218 0.587022,0.63217 0.587022,1.76106 0,0.56445 -0.158044,1.02729 -0.158045,0.45156 -0.41769,0.86925 -0.259644,0.41769 -0.564445,0.85796 l -1.873957,2.8448 h 2.777069 v 1.25307 z"
           id="path14433"
           style="stroke-width:13.7616" /></g><g
         aria-label="3"
         id="g14439"
         style="font-size:11.2889px;font-family:Oswald;-inkscape-font-specification:Oswald;text-align:center;text-anchor:middle;stroke-width:13.7616;stroke-linecap:square"><path
           d="m 102.48397,246.27319 q -0.85795,0 -1.38853,-0.31609 -0.51929,-0.32737 -0.75636,-0.9144 -0.23706,-0.59831 -0.23706,-1.38853 v -0.31609 h 1.54658 q 0,0.0339 0,0.11289 0,0.079 0,0.15804 0.0113,0.42898 0.079,0.73378 0.0677,0.3048 0.24835,0.46285 0.19192,0.15804 0.51929,0.15804 0.34996,0 0.51929,-0.16933 0.18063,-0.16934 0.23707,-0.49671 0.0677,-0.32738 0.0677,-0.77894 0,-0.69991 -0.22577,-1.09502 -0.21449,-0.4064 -0.84667,-0.44027 -0.0226,0 -0.11289,0 -0.079,0 -0.14676,0 v -1.25307 q 0.0564,0 0.11289,0 0.0677,0 0.12418,0 0.62089,-0.0113 0.85796,-0.32738 0.23706,-0.32737 0.23706,-1.03857 0,-0.57574 -0.18062,-0.90312 -0.16933,-0.32737 -0.66604,-0.32737 -0.48543,0 -0.65476,0.36124 -0.15805,0.36125 -0.16933,0.93698 0,0.079 0,0.16933 0,0.079 0,0.16934 h -1.54658 v -0.44027 q 0,-0.77894 0.27093,-1.3208 0.28222,-0.55316 0.8128,-0.83538 0.53058,-0.29351 1.28694,-0.29351 0.77893,0 1.30951,0.28222 0.53058,0.28222 0.80151,0.82409 0.28222,0.53058 0.28222,1.30951 0,0.8128 -0.33866,1.33209 -0.33867,0.51929 -0.86925,0.67734 0.36125,0.11289 0.63218,0.39511 0.27093,0.27093 0.41769,0.72249 0.15804,0.44026 0.15804,1.07244 0,0.82409 -0.23706,1.45627 -0.22578,0.62089 -0.75636,0.97085 -0.51929,0.34995 -1.38854,0.34995 z"
           id="path14437"
           style="stroke-width:13.7616" /></g><g
         aria-label="4"
         id="g14443"
         style="font-size:11.2889px;font-family:Oswald;-inkscape-font-specification:Oswald;text-align:center;text-anchor:middle;stroke-width:13.7616;stroke-linecap:square"><path
           d="m 53.976545,287.34607 v -2.24649 h -2.731914 v -1.33209 l 2.381958,-5.56543 h 1.817513 v 5.65574 h 0.936979 v 1.24178 h -0.936979 v 2.24649 z m -1.422401,-3.48827 h 1.422401 v -3.97369 z"
           id="path14441"
           style="stroke-width:13.7616" /></g></g></g></svg>
